# xmcd
#
# Track frame offsets:
#	150
#	14942
#	28692
#	39775
#	57760
#	76285
#	92280
#	115525
#	132790
#	152105
#	178867
#	193905
#	217467
#	232475
#	247340
#
# Disc length: 3546 seconds
#
# Revision: 0
# Processed by: cddbd v1.5.1PL2 Copyright (c) Steve Scherf et al.
# Submitted via: dBpowerAMP V4.0
#
DISCID=d70dd80f
DTITLE=Østre Bærum Promenadeorkester - Easy Time
DYEAR=1994
DGENRE=Blues
TTITLE0=Begine the Beguine
TTITLE1=Remeber
TTITLE2=Fly me to the Moon
TTITLE3=Dont Get around Much Anymore
TTITLE4=My Ship
TTITLE5=Riveboat Blues
TTITLE6=The Gräsäkling blues
TTITLE7=Easy Time
TTITLE8=Trubbel
TTITLE9=Naima
TTITLE10=Never on a Sunday
TTITLE11=Crystals
TTITLE12=Ches Choses Folles
TTITLE13=Echoes of Harlem
TTITLE14=Halleluja, I love her so
EXTD=
EXTT0=
EXTT1=
EXTT2=
EXTT3=
EXTT4=
EXTT5=
EXTT6=
EXTT7=
EXTT8=
EXTT9=
EXTT10=
EXTT11=
EXTT12=
EXTT13=
EXTT14=
PLAYORDER=
